<?xml version="1.0" encoding="utf-8"?>
<!-- Generator: Adobe Illustrator 18.1.1, SVG Export Plug-In . SVG Version: 6.00 Build 0)  -->
<svg version="1.1" id="efff930b-7031-4101-bb54-2d24ab2f7925"
	 xmlns="http://www.w3.org/2000/svg" xmlns:xlink="http://www.w3.org/1999/xlink" x="0px" y="0px" viewBox="292 -204.2 836 553.2"
	 enable-background="new 292 -204.2 836 553.2" xml:space="preserve">
<g>
	
		<image overflow="visible" opacity="0.45" width="855" height="570" xlink:href="2C3F5B43.png"  transform="matrix(1 0 0 1 283 -213)">
	</image>
	<g>
		<path fill="#44C6F1" d="M293.6-202.6c0,0,7.6,95.9,185.7,94.8c67.2-0.4,203.9-31,253.1,123.9c53.4,168,163.7,84.5,225.4,125
			c67.2,44,50.1,101.5,118.5,166.5c42.6,40.6,53.5,41.2,53.5,41.2H293.6V-202.6z"/>
	</g>
</g>
<title>Moving</title>
<rect x="299.1" y="334.2" fill="#3F3D56" width="562.1" height="1.3"/>
<rect x="360.9" y="226.2" fill="#3F3D56" width="135.1" height="108.9"/>
<rect x="410" y="303.6" fill="#B87AF9" width="22.9" height="30.9"/>
<path fill="#D59992" d="M692.4,156.3c-4.4,9.3-41.3-2.7-41.3-2.7l-70.5-22.2l-17.5-10.9l-11.1-7l22.9-8.4l0.7,0.3l16.9,6.5
	l65.4,32.4C657.8,144.3,703.8,132.1,692.4,156.3z"/>
<path fill="#D0CDE1" d="M515.5,60.9c0,0-8.8,3.5-9.8,13.5s-1.1,66-1.1,66s23.1-13.3,35.4-13.5s41.2-21.2,41.2-21.2
	S526.9,56.7,515.5,60.9z"/>
<path fill="#B3D6AB" enable-background="new    " d="M515.5,60.9c0,0-8.8,3.5-9.8,13.5s-1.1,66-1.1,66s23.1-13.3,35.4-13.5
	s41.2-21.2,41.2-21.2S526.9,56.7,515.5,60.9z"/>
<path fill="#3F3D56" d="M704.7,143.5l-0.3-0.7c-0.1-0.2-10.2-21.3-4.6-42.2c5.6-20.8,25-34,25.2-34.1l0.6-0.4l0.3,0.7
	c0.1,0.2,10.2,21.3,4.6,42.2c-5.6,20.8-25,34-25.2,34.1L704.7,143.5z M725.1,68.1c-3.4,2.5-19.1,14.7-24,32.9
	c-4.9,18.2,2.5,36.7,4.2,40.5c3.4-2.5,19.1-14.7,24-32.9l0,0C734.2,90.4,726.8,71.9,725.1,68.1z"/>
<path fill="#B87AF9" d="M678.6,108.8c5.6,20.8,24.9,33.7,24.9,33.7s10.2-20.9,4.5-41.7c-5.6-20.8-24.9-33.7-24.9-33.7
	S673,88,678.6,108.8z"/>
<path fill="#3F3D56" d="M705,143.2l-0.8,0c-0.2,0-23.6-1.5-39.1-16.5c-15.5-15.1-17.5-38.4-17.6-38.6l-0.1-0.8l0.8,0
	c0.2,0,23.6,1.5,39.1,16.5c15.5,15.1,17.5,38.4,17.6,38.6L705,143.2z M649,88.7c0.5,4.2,3.6,23.8,17.1,37
	c13.5,13.1,33.2,15.7,37.4,16.1c-0.5-4.2-3.6-23.8-17.1-37l0,0C672.9,91.6,653.2,89.1,649,88.7z"/>
<path fill="#3F3D56" d="M721.6,104.3c-15.5,15.1-17.4,38.2-17.4,38.2s23.2-1.3,38.6-16.3S760.3,88,760.3,88S737.1,89.3,721.6,104.3z
	"/>
<circle fill="#B87AF9" cx="704" cy="53.6" r="10.1"/>
<path fill="#C5F4BD" d="M680.2,138.2h50c6.2,0,11.3,5.1,11.3,11.3v12.4c0,6.2-5.1,11.3-11.3,11.3h-50c-6.2,0-11.3-5.1-11.3-11.3
	v-12.4C668.9,143.2,673.9,138.2,680.2,138.2z"/>
<circle fill="#2F2E41" cx="534.7" cy="26.5" r="33.1"/>
<path fill="none" d="M614.2,316.4l-2.3-2l0.2,1.2C612.1,315.7,612.9,315.9,614.2,316.4z"/>
<path fill="#D59992" d="M602,244.4l-18.8,1.3c0,0-0.6,35.3-3,44.4l32.3,25.5l-6.7-21.5L602,244.4z"/>
<path fill="#2F2E41" d="M614.2,316.4L614.2,316.4L614.2,316.4c-1.3-0.5-1.2-0.7-1.2-0.7v-1.3l-32.9-26.4c-0.3,1.2-0.7,2-1.1,2.2
	c-1.2,0.7-2.9,3.1-4.6,5.8c-4,6.5-5,14.4-2.7,21.7v0l-1.3,22.9h5.4l1.3-20.8h6.7c0,0,11.4,14.8,14.8,20.2c3.4,5.4,18.2,6.7,32.9-3.4
	C644.1,328,621.5,319,614.2,316.4z"/>
<circle fill="#D59992" cx="534.7" cy="42.3" r="21.5"/>
<path fill="#D59992" d="M546.5,54.1l-11.4,38.3l-27.6-20.2c0,0,14.1-15.5,14.1-19.5S546.5,54.1,546.5,54.1z"/>
<path fill="#2F2E41" d="M436.6,164.7c0,0-32.9,39.7-1.3,63.9c13.9,10.7,26.1,30.8,35.4,50c14.8,30.7,42.5,53.3,75.5,61.6h0
	c0,0,112.3-131.1,74-168.1s-141.9-4.7-141.9-4.7L436.6,164.7z"/>
<path fill="#C5F4BD" d="M529.8,131.3c0.1,8.9-1.5,18.6-9.2,20.7c-14.8,4-16.1,2-16.1,2s-2.7,4.7-2,10.1c0.7,5.4-6.4,1-6.4,1
	s-71.6,9.1-68.9-1s28.2-45,28.2-45s41.7-58.5,50.4-56.5c0.3,0.1,0.6,0.1,0.9,0.2c8.9,2.6,24,14,25.3,18.6c1.3,4.7-4,34.3-4,34.3
	C529.1,120.8,529.7,126,529.8,131.3z"/>
<circle fill="#2F2E41" cx="539.1" cy="-16.9" r="11"/>
<path fill="#2F2E41" d="M551.5-10.1c3.5-4.4,3.1-10.8-0.9-14.7c0.3,0.2,0.6,0.4,0.9,0.6c4.8,3.8,5.6,10.7,1.8,15.4
	c-3.8,4.8-10.7,5.6-15.4,1.8c0,0,0,0,0,0c-0.3-0.2-0.6-0.5-0.8-0.7C541.7-4.6,548-5.7,551.5-10.1z"/>
<path fill="#2F2E41" d="M540.7,11.2c12.5,3.4,21,12.1,19.1,19.4c-0.9,3.3-3.7,5.7-7.7,7.1l-3.5-4.3l-0.2,5.3
	c-0.6,0.1-1.1,0.2-1.7,0.2l-4.4-9.4l-2.5,9.3c-2.1-0.2-4.1-0.6-6.2-1.2c-12.5-3.4-21-12.1-19.1-19.4
	C516.5,10.9,528.2,7.8,540.7,11.2z"/>
<path fill="#D59992" d="M635.6,213.8c-8.7,5.4-14.1-32.9-14.1-32.9l-63.2-38.3l-14.4-14.8l-9.2-9.4l24.2-2.7l0.6,0.4l14.9,10.3
	l55.8,47.1C630.2,173.5,644.3,208.4,635.6,213.8z"/>
<path fill="#6D6C7F" d="M529,113.6c1.1,5.1,1.7,10.4,1.8,15.6c-4.7,0.9-8.9,1.2-11.9,0.5c-12.1-2.7-37.7,4.7-37.7,4.7
	s13.4-54.5,16.8-63.9c1.6-4.5,5.1-8.1,9.7-9.8c8.9,2.6,24,14,25.3,18.6C534.4,84.1,529,113.6,529,113.6z"/>
<path opacity="0.1" enable-background="new    " d="M563,121c0,0-8.9,3.6-19.1,6.7l-9.2-9.4l24.2-2.7l0.6,0.4
	C561.7,119.1,563,121,563,121z"/>
<path fill="#C5F4BD" d="M511.9,58.5c0,0-9.4,1.3-12.8,10.8c-3.4,9.4-16.8,63.9-16.8,63.9s25.5-7.4,37.7-4.7
	c12.1,2.7,45-10.8,45-10.8S524,57.1,511.9,58.5z"/>
<polygon fill="#3F3D56" points="765.6,228.8 769.2,219.2 802.7,200 825.5,195.2 "/>
<polygon fill="#3F3D56" points="642.1,228.8 638.5,219.2 604.9,200 582.1,195.2 "/>
<polygon fill="#3F3D56" points="768,231.2 639.7,231.2 628.9,180.8 778.8,180.8 "/>
<polygon opacity="0.1" enable-background="new    " points="768,231.2 639.7,231.2 628.9,180.8 778.8,180.8 "/>
<rect x="639.1" y="228.2" fill="#3F3D56" width="129.5" height="106.3"/>
<rect x="692.4" y="302.9" fill="#B87AF9" width="22.9" height="30.9"/>
</svg>
